<?xml version="1.0" standalone="no"?>
<!DOCTYPE svg PUBLIC "-//W3C//DTD SVG 20010904//EN"
 "http://www.w3.org/TR/2001/REC-SVG-20010904/DTD/svg10.dtd">
<svg version="1.0" xmlns="http://www.w3.org/2000/svg"
 width="512.000000pt" height="512.000000pt" viewBox="0 0 512.000000 512.000000"
 preserveAspectRatio="xMidYMid meet">

<g transform="translate(0.000000,512.000000) scale(0.100000,-0.100000)"
fill="#000000" stroke="none">
<path d="M803 5055 c-53 -37 -360 -480 -514 -740 -150 -256 -252 -494 -279
-655 -43 -253 80 -565 293 -748 164 -141 339 -205 557 -204 134 0 233 23 349
77 173 82 323 230 409 400 62 124 98 323 81 454 -20 159 -128 415 -293 694
-169 286 -468 711 -513 728 -35 13 -66 11 -90 -6z m241 -508 c257 -378 425
-704 462 -896 41 -212 -60 -463 -248 -613 -119 -96 -248 -142 -398 -142 -116
0 -181 14 -287 65 -193 92 -325 263 -369 479 -33 163 -4 285 127 550 109 219
210 384 422 688 l99 143 44 -61 c24 -33 91 -129 148 -213z"/>
<path d="M4224 5060 c-42 -17 -348 -453 -510 -727 -165 -279 -273 -535 -293
-694 -17 -131 19 -330 81 -454 60 -118 166 -243 274 -321 228 -164 524 -203
794 -103 125 46 268 152 360 268 139 174 213 434 180 631 -27 161 -129 399
-279 655 -154 260 -461 703 -514 740 -23 16 -60 19 -93 5z m176 -429 c173
-250 286 -437 383 -631 137 -273 166 -395 133 -560 -44 -216 -176 -387 -369
-479 -106 -51 -171 -65 -287 -65 -150 0 -279 46 -398 142 -142 114 -226 264
-252 450 -22 161 35 334 212 652 116 207 433 684 448 675 3 -2 61 -85 130
-184z"/>
<path d="M2513 3163 c-15 -5 -161 -195 -284 -368 -430 -602 -698 -1093 -782
-1430 -38 -154 -24 -366 35 -540 126 -369 418 -638 807 -743 86 -23 114 -26
271 -26 157 0 185 3 271 26 389 105 681 374 807 743 59 174 73 386 35 540 -55
222 -206 544 -406 867 -208 337 -619 915 -663 932 -18 7 -73 7 -91 -1z m92
-295 c498 -666 853 -1304 896 -1612 10 -79 1 -211 -22 -301 -72 -280 -286
-531 -546 -639 -139 -58 -206 -71 -373 -71 -167 0 -234 13 -373 71 -260 108
-474 359 -546 639 -23 90 -32 222 -22 301 35 245 240 654 594 1184 139 207
336 480 347 480 3 0 23 -24 45 -52z"/>
</g>
</svg>
